<?xml version="1.0" standalone="no"?>
<!DOCTYPE svg PUBLIC "-//W3C//DTD SVG 20010904//EN"
 "http://www.w3.org/TR/2001/REC-SVG-20010904/DTD/svg10.dtd">
<svg version="1.0" xmlns="http://www.w3.org/2000/svg"
 width="512.000000pt" height="512.000000pt" viewBox="0 0 512.000000 512.000000"
 preserveAspectRatio="xMidYMid meet">
<metadata>
Created by potrace 1.14, written by Peter Selinger 2001-2017
</metadata>
<g transform="translate(0.000000,512.000000) scale(0.100000,-0.100000)"
fill="#000000" stroke="none">
<path d="M1080 5105 c-274 -46 -513 -168 -705 -360 -195 -194 -314 -431 -360
-710 -23 -138 -22 -2825 0 -2965 43 -264 165 -500 360 -695 149 -150 300 -244
498 -310 205 -69 127 -66 1728 -63 l1444 3 104 29 c478 130 807 459 937 937
l29 104 3 1444 c3 1601 6 1523 -63 1728 -66 198 -160 349 -310 498 -151 151
-301 244 -498 310 -201 67 -142 65 -1692 64 -1080 -1 -1417 -4 -1475 -14z
m1135 -812 c17 -9 101 -86 188 -171 l157 -156 158 156 c86 85 173 164 192 173
64 33 179 16 233 -33 11 -9 30 -36 44 -60 31 -52 34 -141 8 -193 -10 -19 -88
-105 -173 -191 l-156 -158 156 -157 c85 -87 163 -173 173 -192 9 -18 17 -57
17 -86 1 -123 -90 -215 -213 -215 -82 0 -113 21 -281 188 l-158 156 -157 -156
c-87 -85 -173 -163 -192 -173 -56 -28 -154 -18 -213 23 -83 57 -117 176 -73
262 9 19 87 106 173 192 l156 158 -156 157 c-85 87 -164 174 -173 193 -11 21
-18 57 -18 90 0 159 166 264 308 193z m-539 -1526 c101 -26 301 -151 429 -269
l54 -49 58 15 c216 54 472 54 686 0 l58 -15 54 49 c117 107 293 223 390 256
150 51 319 17 431 -86 159 -147 288 -482 348 -903 46 -324 74 -734 55 -793
-30 -95 -96 -149 -191 -159 -60 -5 -106 10 -158 54 -59 49 -69 88 -85 335 -28
444 -75 729 -154 948 -28 77 -88 191 -101 194 -3 1 -37 -17 -75 -39 -98 -57
-279 -234 -330 -322 l-39 -68 -90 45 c-153 77 -289 109 -456 109 -168 0 -303
-32 -457 -109 l-92 -47 -28 56 c-38 78 -234 274 -329 329 -38 23 -75 42 -81
42 -14 0 -53 -66 -87 -147 -86 -205 -141 -526 -171 -995 -17 -274 -35 -322
-139 -369 -122 -55 -276 25 -300 157 -9 45 9 349 35 583 52 475 141 782 290
1002 111 164 300 241 475 196z m455 -1453 c128 -89 124 -283 -7 -360 -54 -32
-126 -41 -179 -24 -50 17 -121 83 -135 126 -15 44 -15 120 0 159 16 41 67 94
115 117 59 28 152 20 206 -18z m1064 17 c47 -22 99 -74 114 -114 14 -35 14
-127 1 -161 -16 -43 -79 -104 -125 -122 -94 -36 -210 6 -262 93 -39 67 -38
153 3 219 56 91 176 128 269 85z"/>
</g>
</svg>
